<?xml version="1.0" encoding="UTF-8" standalone="no"?>
<!-- Created with Inkscape (http://www.inkscape.org/) -->

<svg
   width="257.87259"
   height="477.8793"
   viewBox="0 0 68.228787 126.4389"
   version="1.1"
   id="svg1"
   xml:space="preserve"
   xmlns="http://www.w3.org/2000/svg"
   xmlns:svg="http://www.w3.org/2000/svg"><defs
     id="defs1" /><rect
     style="fill:#1a1a1a;stroke-width:0.810589;stroke-dasharray:0.170775, 0.170775"
     id="rect1"
     width="0.59490454"
     height="64.844597"
     x="35.062798"
     y="0.14286876"
     ry="0.14410029" /><g
     id="g1"
     transform="matrix(0.36724093,0,0,0.36724093,-5.6996734,71.533193)"><path
       fill="#444444"
       d="m 115.84767,4.5161635 h -9.6 c -4.73,0 -7.599997,3.5 -6.949997,7.8799995 1.509997,10.12 -1.88,24.18 -4.46,34.16 0,3.6 32.589997,2.54 32.589997,-1.06 2.58,-9.98 0.11,-22.98 -1.4,-33.1 -0.66,-4.3899995 -5.46,-7.8799995 -10.18,-7.8799995"
       id="path1" /><circle
       cx="81.796776"
       cy="66.771675"
       r="4.3299999"
       fill="#fbc11b"
       transform="rotate(-33.361)"
       id="circle5" /><path
       fill="#444444"
       d="m 141.84767,-14.963837 6.41,1.66 -4.76,15.4300005 -7.4,-1.91000003 z"
       id="path7" /><path
       fill="#fbc11b"
       d="m 141.13767,5.6561635 -2.9,-7.07 -16.8,6.24 3.29,8.0199995 z"
       id="path8" /><circle
       cx="128.46181"
       cy="54.911495"
       r="3.8199999"
       fill="#444444"
       transform="rotate(-22.271)"
       id="circle8" /><circle
       cx="110.55644"
       cy="54.827244"
       r="4.3299999"
       fill="#fbc11b"
       transform="rotate(-22.271)"
       id="circle9" /><path
       fill="#444444"
       d="m 117.89767,10.966163 c -1.09,-2.6699995 0.18,-5.7299995 2.86,-6.8199995 l 17.49,-5.55 2.9,7.07 -16.42,8.1599995 c -2.68,1.09 -5.74,-0.19 -6.83,-2.86"
       id="path9" /><path
       fill="#e0e0e0"
       d="m 141.85767,-14.973837 6.41,1.64 -1.43,6.2500005 -7.8,-1.8 z"
       id="path10" /><path
       fill="#00e676"
       d="m 107.29767,5.3461635 4.54,-1.81 h 5.27 l 2.76,2.41 1.12,9.6799995 -3.48,11.27 -4.17,8.27 -1.81,-4.82 -4.1,-11.81 -2.39,-6.18 V 8.8361635 Z"
       id="path21" /><path
       fill="#757575"
       d="m 107.48767,5.2761635 c 0,0 -0.89,1.42 -0.95,4.11 -0.06,2.9299995 6.48,16.7999995 7.6,27.5799995 l -1.61,0.07 c 0,0 -9.88,-15.15 -11.69,-25 0.56,-0.81 2.71,-1.96 2.71,-1.96 L 99.127673,7.8061635 c 0,0 4.069997,-6.5 7.169997,-8.17000003 1.51,-0.3 4.38,-0.43 4.97,-0.41 l 0.27,4.85000003 z"
       id="path22" /><path
       fill="#757575"
       d="m 117.89767,4.2261635 c 0,0 1.34,1.44 1.68,4.1 0.37,2.8999995 -4.41,21.8799995 -7.05,28.6999995 l 1.61,-0.07 c 9.78,-7.04 11.61,-26.75 11.61,-26.75 l -2.9,-1.5999995 3.84,-2.9 c 0,0 -4.68,-5.84000003 -7.93,-7.1 -1.53,-0.1 -4.4,0.14 -4.98,0.23 l 0.33,5.06 z"
       id="path23" /><path
       fill="#e49500"
       d="m 113.30767,9.2161635 c -2.19,0.2 -4.12,-1.42 -4.31,-3.6 l -0.3,-3.38 7.92,-0.71 0.3,3.38 c 0.19,2.18 -1.43,4.12 -3.61,4.31 m 8.53,-18.54 c 0,0 1.88,0.16 2.06,2.15 0.16,1.76 -1.13,2.58 -2.48,2.7 l -0.43,-4.77 z m -20.22,1.81 c 0,0 -1.829997,0.49 -1.649997,2.48 0.159997,1.76 1.569997,2.34 2.919997,2.21 l -0.43,-4.77 z"
       id="path24" /><path
       fill="#fbc11b"
       d="m 110.55767,-21.493837 c -7.99,0.72 -9.53,7.1 -8.75,15.8000005 0.81,9.02 6.82,10.84 11.1,10.45 4.22,-0.38 9.88,-3.17 9.06,-12.26 -0.78,-8.7000005 -3.42,-14.7100005 -11.41,-13.9900005"
       id="path25" /><path
       fill="#c07b47"
       d="m 115.38767,-0.57383653 c -0.41,0.04 -2.92,0.27 -2.92,0.27 0,0 -2.51,0.23 -2.92,0.27 -0.33,0.03 -0.46,0.27 -0.21,0.59 0.35,0.44 1.59,1.24000003 3.3,1.08000003 1.71,-0.16 2.78,-1.17000003 3.05,-1.67000003 0.2,-0.36 0.04,-0.57 -0.3,-0.54 m -6.75,-4.91999997 c 0.08,0.9 -0.46,1.68 -1.2,1.75 -0.74,0.07 -1.41,-0.61 -1.49,-1.51 -0.08,-0.9 0.46,-1.68 1.2,-1.75 0.75,-0.07 1.41,0.61 1.49,1.51 m 6.64,-0.6 c 0.08,0.9 0.75,1.57 1.49,1.51 0.74,-0.07 1.28,-0.85 1.2,-1.75 -0.08,-0.9 -0.75,-1.57 -1.49,-1.51 -0.74,0.07 -1.28,0.85 -1.2,1.75"
       id="path26"
       style="fill:#1a1a1a" /><path
       fill="#e49500"
       d="m 113.63767,-2.9038365 c -0.48,0.19 -0.99,0.3 -1.39,0.34 -0.4,0.04 -0.92,0.01 -1.43,-0.08 -0.22,-0.04 -0.28,0.17 -0.2,0.29 0.18,0.26 0.87,0.77 1.7,0.69 0.84,-0.08 1.42,-0.69 1.55,-0.98 0.08,-0.14 -0.02,-0.34 -0.23,-0.26"
       id="path27" /><path
       fill="#6d4c41"
       d="m 110.69767,-22.653837 c 0,0 -0.16,0.01 -0.22,0.02 -0.07,0.01 -0.22,0.02 -0.22,0.02 -8.61,0.94 -10.739997,6.36 -10.419997,9.96 0.309997,3.5000005 0.549997,6.0600005 0.549997,6.0600005 0,0 0.12,-0.15 0.36,-0.37 0.25,-0.23 0.54,-0.38 0.54,-0.38 l 0.7,2.88 2.34,-6.2600005 c 0.01,-0.04 0.05,-0.06 0.09,-0.06 l 1.72,0.04 c 1.73,0.04 3.46,-0.03 5.18,-0.17 0.07,-0.01 0.15,-0.02 0.22,-0.02 0.07,-0.01 0.15,-0.01 0.22,-0.02 1.72,-0.16 3.43,-0.41 5.12,-0.75 l 1.69,-0.34 c 0.04,-0.01 0.08,0.01 0.1,0.05 l 3.41,5.7400005 0.17,-2.96 c 0,0 0.31,0.09 0.6,0.28 0.27,0.17 0.42,0.3 0.42,0.3 l -0.54,-6.0600005 c -0.33,-3.61 -3.4,-8.56 -12.03,-7.96"
       id="path28"
       style="fill:#803300" /><path
       fill="#fbc11b"
       d="m 143.6503,-9.5567465 -0.20518,-0.07747 c -2.3277,-0.8804145 -3.49832,-3.4878935 -2.61791,-5.8155915 l 0.91563,-2.419676 c 0.88041,-2.327698 3.48789,-3.498319 5.81558,-2.617907 l 0.20518,0.07748 c 2.3277,0.880409 3.49832,3.487888 2.61791,5.815583 l -0.91562,2.419675 c -0.88041,2.3276995 -3.48789,3.4983195 -5.81559,2.6179105"
       id="path2-2"
       style="fill:#ffd42a" /></g></svg>
