<?xml version="1.0" encoding="UTF-8" standalone="no"?>
<!-- Created with Inkscape (http://www.inkscape.org/) -->

<svg
   width="400"
   height="500"
   viewBox="0 0 105.83333 132.29167"
   version="1.1"
   id="svg1"
   xml:space="preserve"
   xmlns="http://www.w3.org/2000/svg"
   xmlns:svg="http://www.w3.org/2000/svg"><defs
     id="defs1" /><g
     id="layer1"><ellipse
       style="fill:#666666;stroke:#000000;stroke-width:0.448122;stroke-dasharray:none;stroke-opacity:1"
       id="path1"
       cx="28.583998"
       cy="121.71349"
       rx="25.41539"
       ry="8.1208935" /><rect
       style="fill:#4d4d4d;stroke-width:59.1678"
       id="rect2"
       width="4.661994"
       height="117.9613"
       x="27.531288"
       y="4.0529795"
       ry="0" /><ellipse
       style="fill:#4d4d4d;stroke-width:10.7333"
       id="path1-1"
       cx="29.319498"
       cy="120.81143"
       rx="6.8245034"
       ry="2.1806107" /><rect
       style="fill:none;stroke:#c8c4b7;stroke-width:0.334;stroke-dasharray:0.167, 0.167;stroke-dashoffset:0;stroke-opacity:1"
       id="rect5"
       width="0.14992149"
       height="14.748225"
       x="65.323769"
       y="4.1619034"
       ry="0.060196843" /><rect
       style="fill:#4d4d4d;stroke-width:43.9733"
       id="rect3"
       width="40.409058"
       height="0.85071683"
       x="27.51211"
       y="3.6195495" /><rect
       style="fill:#4d4d4d;stroke-width:53.5785"
       id="rect4"
       width="0.70551455"
       height="5.0393896"
       x="26.90719"
       y="-22.754948"
       transform="rotate(46.584679)" /><ellipse
       style="fill:none;stroke:#c8c4b7;stroke-width:1.23037;stroke-dasharray:0.123037, 0.123037;stroke-dashoffset:0;stroke-opacity:1"
       id="path5"
       cx="65.188545"
       cy="21.671505"
       rx="5.3698525"
       ry="2.3855946" /><g
       id="g5"
       transform="matrix(0.62676264,0,0,0.62676264,27.318908,12.28976)"><path
         fill="#e49500"
         d="m 61.38,35.18 c -2.19,0.2 -4.12,-1.42 -4.31,-3.6 l -0.3,-3.38 7.92,-0.71 0.3,3.38 c 0.19,2.18 -1.43,4.12 -3.61,4.31 m 8.53,-18.54 c 0,0 1.88,0.16 2.06,2.15 0.16,1.76 -1.13,2.58 -2.48,2.7 l -0.43,-4.77 z m -20.22,1.81 c 0,0 -1.83,0.49 -1.65,2.48 0.16,1.76 1.57,2.34 2.92,2.21 l -0.43,-4.77 z"
         id="path24" /><path
         fill="#fbc11b"
         d="m 58.63,4.47 c -7.99,0.72 -9.53,7.1 -8.75,15.8 0.81,9.02 6.82,10.84 11.1,10.45 4.22,-0.38 9.88,-3.17 9.06,-12.26 C 69.26,9.76 66.62,3.75 58.63,4.47"
         id="path25" /><path
         fill="#c07b47"
         d="m 63.46,25.39 c -0.41,0.04 -2.92,0.27 -2.92,0.27 0,0 -2.51,0.23 -2.92,0.27 -0.33,0.03 -0.46,0.27 -0.21,0.59 0.35,0.44 1.59,1.24 3.3,1.08 1.71,-0.16 2.78,-1.17 3.05,-1.67 0.2,-0.36 0.04,-0.57 -0.3,-0.54 m -6.75,-4.92 c 0.08,0.9 -0.46,1.68 -1.2,1.75 -0.74,0.07 -1.41,-0.61 -1.49,-1.51 -0.08,-0.9 0.46,-1.68 1.2,-1.75 0.75,-0.07 1.41,0.61 1.49,1.51 m 6.64,-0.6 c 0.08,0.9 0.75,1.57 1.49,1.51 0.74,-0.07 1.28,-0.85 1.2,-1.75 -0.08,-0.9 -0.75,-1.57 -1.49,-1.51 -0.74,0.07 -1.28,0.85 -1.2,1.75"
         id="path26"
         style="fill:#333333" /><path
         fill="#e49500"
         d="m 61.71,23.06 c -0.48,0.19 -0.99,0.3 -1.39,0.34 -0.4,0.04 -0.92,0.01 -1.43,-0.08 -0.22,-0.04 -0.28,0.17 -0.2,0.29 0.18,0.26 0.87,0.77 1.7,0.69 0.84,-0.08 1.42,-0.69 1.55,-0.98 0.08,-0.14 -0.02,-0.34 -0.23,-0.26"
         id="path27"
         style="fill:#1a1a1a" /><path
         fill="#6d4c41"
         d="m 58.77,3.31 c 0,0 -0.16,0.01 -0.22,0.02 -0.07,0.01 -0.22,0.02 -0.22,0.02 -8.61,0.94 -10.74,6.36 -10.42,9.96 0.31,3.5 0.55,6.06 0.55,6.06 0,0 0.12,-0.15 0.36,-0.37 0.25,-0.23 0.54,-0.38 0.54,-0.38 l 0.7,2.88 2.34,-6.26 c 0.01,-0.04 0.05,-0.06 0.09,-0.06 l 1.72,0.04 c 1.73,0.04 3.46,-0.03 5.18,-0.17 0.07,-0.01 0.15,-0.02 0.22,-0.02 0.07,-0.01 0.15,-0.01 0.22,-0.02 1.72,-0.16 3.43,-0.41 5.12,-0.75 l 1.69,-0.34 c 0.04,-0.01 0.08,0.01 0.1,0.05 l 3.41,5.74 0.17,-2.96 c 0,0 0.31,0.09 0.6,0.28 0.27,0.17 0.42,0.3 0.42,0.3 L 70.8,11.27 C 70.47,7.66 67.4,2.71 58.77,3.31"
         id="path28" /></g></g></svg>
