<?xml version="1.0" encoding="UTF-8" standalone="no"?>
<!-- Created with Inkscape (http://www.inkscape.org/) -->

<svg
   width="257.87259"
   height="477.8793"
   viewBox="0 0 68.228787 126.4389"
   version="1.1"
   id="svg1"
   xml:space="preserve"
   xmlns="http://www.w3.org/2000/svg"
   xmlns:svg="http://www.w3.org/2000/svg"><defs
     id="defs1" /><rect
     style="fill:#1a1a1a;stroke-width:0.810589;stroke-dasharray:0.170775, 0.170775"
     id="rect1"
     width="0.59490454"
     height="64.844597"
     x="35.062798"
     y="0.14286876"
     ry="0.14410029" /><g
     id="g1"
     transform="matrix(0.36724093,0,0,0.36724093,-5.6996734,71.533193)"><path
       fill="#444444"
       d="m 115.84767,4.5161635 h -9.6 c -4.73,0 -7.599997,3.5 -6.949997,7.8799995 1.509997,10.12 -1.88,24.18 -4.46,34.16 0,3.6 32.589997,2.54 32.589997,-1.06 2.58,-9.98 0.11,-22.98 -1.4,-33.1 -0.66,-4.3899995 -5.46,-7.8799995 -10.18,-7.8799995"
       id="path1" /><path
       fill="#fbc11b"
       d="M 77.180035,40.421142 77.121795,40.2097 c -0.659547,-2.399646 0.758126,-4.88148 3.157771,-5.541027 l 2.494718,-0.685261 c 2.399646,-0.659547 4.88148,0.758126 5.541027,3.157772 l 0.05824,0.211442 c 0.659547,2.399646 -0.758126,4.88148 -3.157771,5.541027 l -2.494718,0.685261 c -2.399646,0.659547 -4.88148,-0.758126 -5.541027,-3.157772"
       id="path2"
       style="fill:#ffd42a" /><path
       fill="#444444"
       d="m 88.017673,37.186163 -6.4,-1.72 4.42,-16.41 7.38,1.98 z"
       id="path3" /><path
       fill="#fbc11b"
       d="m 87.657673,16.736163 4.2,6.38 15.569997,-8.71 -4.77,-7.2399995 z"
       id="path4" /><circle
       cx="64.011292"
       cy="66.003227"
       r="3.8199999"
       fill="#444444"
       transform="rotate(-33.361)"
       id="circle4" /><circle
       cx="81.796776"
       cy="66.771675"
       r="4.3299999"
       fill="#fbc11b"
       transform="rotate(-33.361)"
       id="circle5" /><path
       fill="#444444"
       d="m 109.72767,7.7061635 c 1.59,2.4099995 0.92,5.6599995 -1.49,7.2399995 l -16.369997,8.17 -4.2,-6.38 14.819997,-10.5199995 a 5.217,5.217 0 0 1 7.24,1.49"
       id="path5" /><path
       fill="#e0e0e0"
       d="m 88.017673,37.186163 -6.4,-1.72 1.14,-6.22 7.84,1.81 z"
       id="path6" /><path
       fill="#444444"
       d="m 141.84767,-14.963837 6.41,1.66 -4.76,15.4300005 -7.4,-1.91000003 z"
       id="path7" /><path
       fill="#fbc11b"
       d="m 141.13767,5.6561635 -2.9,-7.07 -16.8,6.24 3.29,8.0199995 z"
       id="path8" /><circle
       cx="128.46181"
       cy="54.911495"
       r="3.8199999"
       fill="#444444"
       transform="rotate(-22.271)"
       id="circle8" /><circle
       cx="110.55644"
       cy="54.827244"
       r="4.3299999"
       fill="#fbc11b"
       transform="rotate(-22.271)"
       id="circle9" /><path
       fill="#444444"
       d="m 117.89767,10.966163 c -1.09,-2.6699995 0.18,-5.7299995 2.86,-6.8199995 l 17.49,-5.55 2.9,7.07 -16.42,8.1599995 c -2.68,1.09 -5.74,-0.19 -6.83,-2.86"
       id="path9" /><path
       fill="#e0e0e0"
       d="m 141.85767,-14.973837 6.41,1.64 -1.43,6.2500005 -7.8,-1.8 z"
       id="path10" /><path
       fill="#fbc11b"
       d="m 94.827673,71.686163 10.499997,2.64 7.45,-25.74 -12.36,-3.1 z"
       id="path11" /><circle
       cx="88.846718"
       cy="86.123131"
       r="5.4099998"
       fill="#444444"
       transform="rotate(-8.15)"
       id="circle11" /><path
       fill="#e0e0e0"
       d="m 88.187673,87.526163 8.34,3.74 -3.41,6.55 -7.73,-3.47 z"
       id="path12" /><path
       fill="#444444"
       d="m 108.46767,39.556163 c 4.06,1.02 6.53,5.14 5.51,9.2 h 0.01 l -8.65,25.56 -10.499997,-2.64 4.44,-26.62 c 1.009997,-4.05 5.129997,-6.52 9.189997,-5.5"
       id="path13" /><path
       fill="#444444"
       d="m 87.027673,87.506163 10.12,4.7 7.869997,-17.19 -9.869997,-4.42 z"
       id="path14" /><path
       d="m 85.397673,102.03616 15.269997,-0.03 -0.01,-2.419997 a 5.205,5.205 0 0 0 -5.219997,-5.19 l -10.07,0.02 z"
       id="path15" /><path
       fill="#00e676"
       d="m 107.29767,5.3461635 4.54,-1.81 h 5.27 l 2.76,2.41 1.12,9.6799995 -3.48,11.27 -4.17,8.27 -1.81,-4.82 -4.1,-11.81 -2.39,-6.18 V 8.8361635 Z"
       id="path21" /><path
       fill="#757575"
       d="m 107.48767,5.2761635 c 0,0 -0.89,1.42 -0.95,4.11 -0.06,2.9299995 6.48,16.7999995 7.6,27.5799995 l -1.61,0.07 c 0,0 -9.88,-15.15 -11.69,-25 0.56,-0.81 2.71,-1.96 2.71,-1.96 L 99.127673,7.8061635 c 0,0 4.069997,-6.5 7.169997,-8.17000003 1.51,-0.3 4.38,-0.43 4.97,-0.41 l 0.27,4.85000003 z"
       id="path22" /><path
       fill="#757575"
       d="m 117.89767,4.2261635 c 0,0 1.34,1.44 1.68,4.1 0.37,2.8999995 -4.41,21.8799995 -7.05,28.6999995 l 1.61,-0.07 c 9.78,-7.04 11.61,-26.75 11.61,-26.75 l -2.9,-1.5999995 3.84,-2.9 c 0,0 -4.68,-5.84000003 -7.93,-7.1 -1.53,-0.1 -4.4,0.14 -4.98,0.23 l 0.33,5.06 z"
       id="path23" /><path
       fill="#e49500"
       d="m 113.30767,9.2161635 c -2.19,0.2 -4.12,-1.42 -4.31,-3.6 l -0.3,-3.38 7.92,-0.71 0.3,3.38 c 0.19,2.18 -1.43,4.12 -3.61,4.31 m 8.53,-18.54 c 0,0 1.88,0.16 2.06,2.15 0.16,1.76 -1.13,2.58 -2.48,2.7 l -0.43,-4.77 z m -20.22,1.81 c 0,0 -1.829997,0.49 -1.649997,2.48 0.159997,1.76 1.569997,2.34 2.919997,2.21 l -0.43,-4.77 z"
       id="path24" /><path
       fill="#fbc11b"
       d="m 110.55767,-21.493837 c -7.99,0.72 -9.53,7.1 -8.75,15.8000005 0.81,9.02 6.82,10.84 11.1,10.45 4.22,-0.38 9.88,-3.17 9.06,-12.26 -0.78,-8.7000005 -3.42,-14.7100005 -11.41,-13.9900005"
       id="path25" /><path
       fill="#c07b47"
       d="m 115.45579,-0.66922535 c -0.40874,0.0512728 -2.91146,0.35028962 -2.91146,0.35028962 0,0 -2.50272,0.29901687 -2.91146,0.35028962 -0.32905,0.03907403 -0.45239,0.28256215 -0.19368,0.59555797 0.36198,0.43019714 1.62354,1.19575494 3.32849,0.98873674 1.70494,-0.2070182 2.74673,-1.24609412 3.00286,-1.7533381 0.19002,-0.36536983 0.0243,-0.57088519 -0.31475,-0.53153585 m -6.8829,-4.73229735 c 0.10475,0.8974563 -0.41357,1.6920276 -1.15136,1.7823744 -0.73779,0.090347 -1.42626,-0.5709494 -1.53101,-1.4684057 -0.10475,-0.8974563 0.41357,-1.6920276 1.15137,-1.7823744 0.74778,-0.090622 1.42625,0.5709493 1.531,1.4684057 m 6.62097,-0.7825817 c 0.10474,0.8974563 0.79294,1.5487562 1.531,1.4684057 0.7378,-0.090347 1.25612,-0.8849182 1.15137,-1.7823745 -0.10475,-0.8974563 -0.79294,-1.5487562 -1.53101,-1.4684057 -0.73779,0.090347 -1.25611,0.8849181 -1.15136,1.7823745"
       id="path26"
       style="fill:#1a1a1a" /><path
       fill="#e49500"
       d="m 113.63767,-3.5227841 c -0.48,0.19 -0.99,0.3 -1.39,0.34 -0.4,0.04 -0.92,0.01 -1.43,-0.08 -0.22,-0.04 -0.28,0.17 -0.2,0.29 0.18,0.26 0.87,0.77 1.7,0.69 0.84,-0.08 1.42,-0.69 1.55,-0.98 0.08,-0.14 -0.02,-0.34 -0.23,-0.26"
       id="path27" /><path
       fill="#6d4c41"
       d="m 110.69767,-22.653837 c 0,0 -0.16,0.01 -0.22,0.02 -0.07,0.01 -0.22,0.02 -0.22,0.02 -8.61,0.94 -10.739997,6.36 -10.419997,9.96 0.309997,3.5000005 0.549997,6.0600005 0.549997,6.0600005 0,0 0.12,-0.15 0.36,-0.37 0.25,-0.23 0.54,-0.38 0.54,-0.38 l 0.7,2.88 2.34,-6.2600005 c 0.01,-0.04 0.05,-0.06 0.09,-0.06 l 1.72,0.04 c 1.73,0.04 3.46,-0.03 5.18,-0.17 0.07,-0.01 0.15,-0.02 0.22,-0.02 0.07,-0.01 0.15,-0.01 0.22,-0.02 1.72,-0.16 3.43,-0.41 5.12,-0.75 l 1.69,-0.34 c 0.04,-0.01 0.08,0.01 0.1,0.05 l 3.41,5.7400005 0.17,-2.96 c 0,0 0.31,0.09 0.6,0.28 0.27,0.17 0.42,0.3 0.42,0.3 l -0.54,-6.0600005 c -0.33,-3.61 -3.4,-8.56 -12.03,-7.96"
       id="path28"
       style="fill:#803300" /><path
       fill="#fbc11b"
       d="m 142.88547,-9.8941325 -0.19192,-0.1061415 c -2.17709,-1.205659 -2.96101,-3.954255 -1.75535,-6.131339 l 1.25373,-2.26305 c 1.20565,-2.177085 3.95424,-2.960998 6.13132,-1.755343 l 0.19192,0.106152 c 2.17709,1.205654 2.96101,3.954251 1.75535,6.131331 l -1.25372,2.26305 c -1.20565,2.1770864 -3.95424,2.9609989 -6.13133,1.7553451"
       id="path2-2"
       style="fill:#ffd42a" /></g></svg>
