<?xml version="1.0" encoding="UTF-8" standalone="no"?>
<!-- Created with Inkscape (http://www.inkscape.org/) -->

<svg
   width="257.87259"
   height="477.8793"
   viewBox="0 0 68.228787 126.4389"
   version="1.1"
   id="svg1"
   xml:space="preserve"
   xmlns="http://www.w3.org/2000/svg"
   xmlns:svg="http://www.w3.org/2000/svg"><defs
     id="defs1" /><rect
     style="fill:#1a1a1a;stroke-width:0.810589;stroke-dasharray:0.170775, 0.170775"
     id="rect1"
     width="0.59490454"
     height="64.844597"
     x="35.062798"
     y="0.14286876"
     ry="0.14410029" /><g
     id="g1"
     transform="matrix(0.36724093,0,0,0.36724093,-5.6996734,71.533193)"><path
       style="font-size:22.2775px;font-family:'Pear Haresh Demo';-inkscape-font-specification:'Pear Haresh Demo';text-align:center;text-anchor:middle;fill:#ff0000;stroke-width:1.02442;stroke-dasharray:0.215823, 0.215823"
       d="m 75.170335,115.77661 v 6.6387 c -0.556938,-2.91836 -2.183195,-4.63372 -4.477778,-4.63372 -2.76241,0 -4.878772,2.45052 -4.878772,5.6362 0,3.43074 2.472802,5.9481 5.836705,5.9481 1.537147,0 2.784687,-0.57922 3.519845,-1.64854 v 0.53466 c 0,0.60149 0.289607,0.8911 0.8911,0.8911 h 2.6733 v -0.22277 c -1.180708,0 -1.7822,-0.6015 -1.7822,-1.7822 V 112.43499 H 76.72976 c -0.80199,0.80199 -1.626258,1.13615 -3.341625,1.33665 v 0.22277 c 1.180707,0 1.7822,0.60149 1.7822,1.7822 z m 0,11.5843 c -0.824268,1.11388 -2.004975,1.71537 -3.319348,1.71537 -2.561912,0 -4.255002,-2.25003 -4.255002,-5.68076 0,-3.14113 1.42576,-5.32433 3.497567,-5.32433 2.361415,0 4.076783,2.8738 4.076783,6.8392 z m 14.948228,-5.70304 c 0,-2.22775 -1.849033,-3.87628 -4.678275,-3.87628 -3.519845,0 -6.014925,2.49508 -6.014925,5.99264 0,3.38618 2.339137,5.59166 5.88126,5.59166 2.561912,0 3.965395,-1.13616 4.81194,-3.43074 H 89.87351 c -0.824267,2.09409 -2.250027,3.20796 -4.54461,3.20796 -0.601492,0 -1.136152,-0.11139 -1.60398,-0.31188 v -0.0223 c -0.735157,-0.35644 -1.047042,-0.8911 -1.047042,-1.7822 0,-3.14113 7.440685,-1.11388 7.440685,-5.36888 z m -7.507518,6.37137 c -0.913377,-0.93566 -1.403482,-2.47281 -1.403482,-4.43323 0,-3.1634 1.849032,-5.59165 4.210447,-5.59165 1.804478,0 2.918353,1.40348 2.918353,3.25252 0,3.94311 -5.992648,2.38369 -5.992648,5.65848 0,0.42327 0.08911,0.80199 0.26733,1.11388 z M 97.69292,118.00436 c 2.71785,0 2.13864,3.25252 3.78717,3.25252 0.53466,0 0.86883,-0.33417 0.86883,-0.84655 0,-1.35893 -2.25003,-2.62874 -4.656,-2.62874 -3.453013,0 -5.903538,2.51735 -5.903538,6.0372 0,3.34162 2.383693,5.5471 5.814428,5.5471 2.42825,0 3.92084,-1.11388 4.72283,-3.43074 h -0.24505 c -0.75744,2.00498 -2.183198,3.14113 -4.165895,3.14113 -2.628745,0 -4.344113,-1.93814 -4.344113,-5.19066 0,-3.43073 1.737645,-5.88126 4.121338,-5.88126 z m 16.35166,3.65351 c 0,-2.22775 -1.84903,-3.87628 -4.67827,-3.87628 -3.51985,0 -6.01493,2.49508 -6.01493,5.99264 0,3.38618 2.33914,5.59166 5.88126,5.59166 2.56192,0 3.9654,-1.13616 4.81194,-3.43074 h -0.24505 c -0.82427,2.09409 -2.25003,3.20796 -4.54461,3.20796 -0.60149,0 -1.13615,-0.11139 -1.60398,-0.31188 v -0.0223 c -0.73516,-0.35644 -1.04704,-0.8911 -1.04704,-1.7822 0,-3.14113 7.44068,-1.11388 7.44068,-5.36888 z m -7.50751,6.37137 c -0.91338,-0.93566 -1.40349,-2.47281 -1.40349,-4.43323 0,-3.1634 1.84904,-5.59165 4.21045,-5.59165 1.80448,0 2.91835,1.40348 2.91835,3.25252 0,3.94311 -5.99264,2.38369 -5.99264,5.65848 0,0.42327 0.0891,0.80199 0.26733,1.11388 z m 10.18081,-1.06932 c 0,-3.14113 4.63372,-3.2748 6.43819,-5.97037 0.0223,0.17822 0.0223,0.37871 0.0223,0.57921 v 4.4555 c -1.13615,2.07181 -2.4728,3.05202 -4.12134,3.05202 -1.49259,0 -2.33913,-0.75744 -2.33913,-2.11636 z m 10.02487,2.18319 v -0.22277 c -1.18071,0 -1.7822,-0.6015 -1.7822,-1.7822 v -5.56938 c 0,-2.18319 -1.96042,-3.78717 -4.61144,-3.78717 -2.38369,0 -4.656,1.26981 -4.656,2.60646 0,0.53466 0.33416,0.86883 0.8911,0.86883 1.62626,0 0.93566,-3.25252 3.80945,-3.25252 1.55943,0 2.49508,0.8911 2.71786,2.62875 -1.80448,3.11885 -7.95307,2.65102 -7.95307,6.19314 0,1.60398 1.26982,2.53964 3.49757,2.53964 2.07181,0 3.38618,-0.80199 4.52233,-2.8738 v 1.75992 c 0,0.60149 0.28961,0.8911 0.8911,0.8911 z m 3.23023,-8.911 c 0,-1.26982 1.15843,-2.22775 2.69558,-2.22775 2.80697,0 2.36142,3.25252 3.92084,3.25252 0.51238,0 0.82427,-0.33417 0.82427,-0.86883 0,-1.3812 -2.27231,-2.60646 -4.78966,-2.60646 -2.60647,0 -4.21045,1.24754 -4.21045,3.20796 0,4.16589 7.44068,2.16091 7.44068,5.74759 0,1.44804 -1.20298,2.40597 -3.00746,2.40597 -3.3639,0 -2.71785,-3.25251 -4.29956,-3.25251 -0.4901,0 -0.80199,0.33416 -0.80199,0.82426 0,1.40349 2.47281,2.65103 5.19066,2.65103 2.78469,0 4.47778,-1.26982 4.47778,-3.34163 0,-4.255 -7.44069,-2.45052 -7.44069,-5.79215 z m 19.69335,1.42576 c 0,-2.22775 -1.84904,-3.87628 -4.67828,-3.87628 -3.51984,0 -6.01492,2.49508 -6.01492,5.99264 0,3.38618 2.33913,5.59166 5.88126,5.59166 2.56191,0 3.96539,-1.13616 4.81194,-3.43074 h -0.24506 c -0.82426,2.09409 -2.25002,3.20796 -4.54461,3.20796 -0.60149,0 -1.13615,-0.11139 -1.60398,-0.31188 v -0.0223 c -0.73515,-0.35644 -1.04704,-0.8911 -1.04704,-1.7822 0,-3.14113 7.44069,-1.11388 7.44069,-5.36888 z m -7.50752,6.37137 c -0.91338,-0.93566 -1.40348,-2.47281 -1.40348,-4.43323 0,-3.1634 1.84903,-5.59165 4.21044,-5.59165 1.80448,0 2.91836,1.40348 2.91836,3.25252 0,3.94311 -5.99265,2.38369 -5.99265,5.65848 0,0.42327 0.0891,0.80199 0.26733,1.11388 z m 18.64628,-12.25263 v 6.6387 c -0.55694,-2.91836 -2.1832,-4.63372 -4.47778,-4.63372 -2.76241,0 -4.87877,2.45052 -4.87877,5.6362 0,3.43074 2.4728,5.9481 5.8367,5.9481 1.53715,0 2.78469,-0.57922 3.51985,-1.64854 v 0.53466 c 0,0.60149 0.2896,0.8911 0.8911,0.8911 h 2.6733 v -0.22277 c -1.18071,0 -1.7822,-0.6015 -1.7822,-1.7822 v -14.70315 h -0.22278 c -0.80199,0.80199 -1.62626,1.13615 -3.34162,1.33665 v 0.22277 c 1.1807,0 1.7822,0.60149 1.7822,1.7822 z m 0,11.5843 c -0.82427,1.11388 -2.00498,1.71537 -3.31935,1.71537 -2.56191,0 -4.255,-2.25003 -4.255,-5.68076 0,-3.14113 1.42576,-5.32433 3.49756,-5.32433 2.36142,0 4.07679,2.8738 4.07679,6.8392 z"
       id="text16"
       aria-label="deceased" /><path
       fill="#444444"
       d="m 115.84767,4.5161635 h -9.6 c -4.73,0 -7.599997,3.5 -6.949997,7.8799995 1.509997,10.12 -1.88,24.18 -4.46,34.16 0,3.6 32.589997,2.54 32.589997,-1.06 2.58,-9.98 0.11,-22.98 -1.4,-33.1 -0.66,-4.3899995 -5.46,-7.8799995 -10.18,-7.8799995"
       id="path1" /><path
       fill="#fbc11b"
       d="M 77.180035,40.421142 77.121795,40.2097 c -0.659547,-2.399646 0.758126,-4.88148 3.157771,-5.541027 l 2.494718,-0.685261 c 2.399646,-0.659547 4.88148,0.758126 5.541027,3.157772 l 0.05824,0.211442 c 0.659547,2.399646 -0.758126,4.88148 -3.157771,5.541027 l -2.494718,0.685261 c -2.399646,0.659547 -4.88148,-0.758126 -5.541027,-3.157772"
       id="path2"
       style="fill:#ffd42a" /><path
       fill="#444444"
       d="m 88.017673,37.186163 -6.4,-1.72 4.42,-16.41 7.38,1.98 z"
       id="path3" /><path
       fill="#fbc11b"
       d="m 87.657673,16.736163 4.2,6.38 15.569997,-8.71 -4.77,-7.2399995 z"
       id="path4" /><circle
       cx="64.011292"
       cy="66.003227"
       r="3.8199999"
       fill="#444444"
       transform="rotate(-33.361)"
       id="circle4" /><circle
       cx="81.796776"
       cy="66.771675"
       r="4.3299999"
       fill="#fbc11b"
       transform="rotate(-33.361)"
       id="circle5" /><path
       fill="#444444"
       d="m 109.72767,7.7061635 c 1.59,2.4099995 0.92,5.6599995 -1.49,7.2399995 l -16.369997,8.17 -4.2,-6.38 14.819997,-10.5199995 a 5.217,5.217 0 0 1 7.24,1.49"
       id="path5" /><path
       fill="#e0e0e0"
       d="m 88.017673,37.186163 -6.4,-1.72 1.14,-6.22 7.84,1.81 z"
       id="path6" /><path
       fill="#444444"
       d="m 141.84767,-14.963837 6.41,1.66 -4.76,15.4300005 -7.4,-1.91000003 z"
       id="path7" /><path
       fill="#fbc11b"
       d="m 141.13767,5.6561635 -2.9,-7.07 -16.8,6.24 3.29,8.0199995 z"
       id="path8" /><circle
       cx="128.46181"
       cy="54.911495"
       r="3.8199999"
       fill="#444444"
       transform="rotate(-22.271)"
       id="circle8" /><circle
       cx="110.55644"
       cy="54.827244"
       r="4.3299999"
       fill="#fbc11b"
       transform="rotate(-22.271)"
       id="circle9" /><path
       fill="#444444"
       d="m 117.89767,10.966163 c -1.09,-2.6699995 0.18,-5.7299995 2.86,-6.8199995 l 17.49,-5.55 2.9,7.07 -16.42,8.1599995 c -2.68,1.09 -5.74,-0.19 -6.83,-2.86"
       id="path9" /><path
       fill="#e0e0e0"
       d="m 141.85767,-14.973837 6.41,1.64 -1.43,6.2500005 -7.8,-1.8 z"
       id="path10" /><path
       fill="#fbc11b"
       d="m 94.827673,71.686163 10.499997,2.64 7.45,-25.74 -12.36,-3.1 z"
       id="path11" /><circle
       cx="88.846718"
       cy="86.123131"
       r="5.4099998"
       fill="#444444"
       transform="rotate(-8.15)"
       id="circle11" /><path
       fill="#e0e0e0"
       d="m 88.187673,87.526163 8.34,3.74 -3.41,6.55 -7.73,-3.47 z"
       id="path12" /><path
       fill="#444444"
       d="m 108.46767,39.556163 c 4.06,1.02 6.53,5.14 5.51,9.2 h 0.01 l -8.65,25.56 -10.499997,-2.64 4.44,-26.62 c 1.009997,-4.05 5.129997,-6.52 9.189997,-5.5"
       id="path13" /><path
       fill="#444444"
       d="m 87.027673,87.506163 10.12,4.7 7.869997,-17.19 -9.869997,-4.42 z"
       id="path14" /><path
       d="m 85.397673,102.03616 15.269997,-0.03 -0.01,-2.419997 a 5.205,5.205 0 0 0 -5.219997,-5.19 l -10.07,0.02 z"
       id="path15" /><path
       fill="#e0e0e0"
       d="m 135.82557,87.392827 -8.34,3.74 3.41,6.550004 7.73,-3.470004 z"
       id="path12-8" /><path
       fill="#444444"
       d="m 115.83734,40.784444 c -4.06,1.02 -6.53,5.14 -5.51,9.2 h -0.01 l 8.65,25.56 10.5,-2.64 -4.44,-26.62 c -1.01,-4.05 -5.13,-6.52 -9.19,-5.5"
       id="path13-2" /><path
       fill="#444444"
       d="m 136.79105,87.275569 -10.12,4.7 -7.87,-17.189998 9.87,-4.42 z"
       id="path14-4" /><path
       d="m 128.53025,99.860408 15.27,-0.03 -0.01,-2.419996 a 5.205,5.205 0 0 0 -5.22,-5.190008 l -10.07,0.02 z"
       id="path15-5" /><path
       fill="#00e676"
       d="m 107.29767,5.3461635 4.54,-1.81 h 5.27 l 2.76,2.41 1.12,9.6799995 -3.48,11.27 -4.17,8.27 -1.81,-4.82 -4.1,-11.81 -2.39,-6.18 V 8.8361635 Z"
       id="path21" /><path
       fill="#757575"
       d="m 107.48767,5.2761635 c 0,0 -0.89,1.42 -0.95,4.11 -0.06,2.9299995 6.48,16.7999995 7.6,27.5799995 l -1.61,0.07 c 0,0 -9.88,-15.15 -11.69,-25 0.56,-0.81 2.71,-1.96 2.71,-1.96 L 99.127673,7.8061635 c 0,0 4.069997,-6.5 7.169997,-8.17000003 1.51,-0.3 4.38,-0.43 4.97,-0.41 l 0.27,4.85000003 z"
       id="path22" /><path
       fill="#757575"
       d="m 117.89767,4.2261635 c 0,0 1.34,1.44 1.68,4.1 0.37,2.8999995 -4.41,21.8799995 -7.05,28.6999995 l 1.61,-0.07 c 9.78,-7.04 11.61,-26.75 11.61,-26.75 l -2.9,-1.5999995 3.84,-2.9 c 0,0 -4.68,-5.84000003 -7.93,-7.1 -1.53,-0.1 -4.4,0.14 -4.98,0.23 l 0.33,5.06 z"
       id="path23" /><path
       fill="#e49500"
       d="m 113.30767,9.2161635 c -2.19,0.2 -4.12,-1.42 -4.31,-3.6 l -0.3,-3.38 7.92,-0.71 0.3,3.38 c 0.19,2.18 -1.43,4.12 -3.61,4.31 m 8.53,-18.54 c 0,0 1.88,0.16 2.06,2.15 0.16,1.76 -1.13,2.58 -2.48,2.7 l -0.43,-4.77 z m -20.22,1.81 c 0,0 -1.829997,0.49 -1.649997,2.48 0.159997,1.76 1.569997,2.34 2.919997,2.21 l -0.43,-4.77 z"
       id="path24" /><path
       fill="#fbc11b"
       d="m 110.55767,-21.493837 c -7.99,0.72 -9.53,7.1 -8.75,15.8000005 0.81,9.02 6.82,10.84 11.1,10.45 4.22,-0.38 9.88,-3.17 9.06,-12.26 -0.78,-8.7000005 -3.42,-14.7100005 -11.41,-13.9900005"
       id="path25" /><path
       fill="#c07b47"
       d="m 109.39957,1.9883373 c 0.47853,-0.060059 3.40858,-0.4101 3.40858,-0.4101 0,0 2.93004,-0.3500759 3.40857,-0.4100999 0.38524,-0.045776 0.52964,-0.33080553 0.22675,-0.69724843 -0.42378,-0.50365415 -1.90075,-1.39992906 -3.89681,-1.1575616 -1.99605,0.24236746 -3.21572,1.4588643 -3.51558,2.05271263 -0.22246,0.4277548 -0.0284,0.6683661 0.36849,0.6222973"
       id="path26"
       style="fill:#1a1a1a;stroke-width:1.17074" /><path
       fill="#e49500"
       d="m 113.63767,-3.5227841 c -0.48,0.19 -0.99,0.3 -1.39,0.34 -0.4,0.04 -0.92,0.01 -1.43,-0.08 -0.22,-0.04 -0.28,0.17 -0.2,0.29 0.18,0.26 0.87,0.77 1.7,0.69 0.84,-0.08 1.42,-0.69 1.55,-0.98 0.08,-0.14 -0.02,-0.34 -0.23,-0.26"
       id="path27" /><path
       fill="#6d4c41"
       d="m 110.69767,-22.653837 c 0,0 -0.16,0.01 -0.22,0.02 -0.07,0.01 -0.22,0.02 -0.22,0.02 -8.61,0.94 -10.739997,6.36 -10.419997,9.96 0.309997,3.5000005 0.549997,6.0600005 0.549997,6.0600005 0,0 0.12,-0.15 0.36,-0.37 0.25,-0.23 0.54,-0.38 0.54,-0.38 l 0.7,2.88 2.34,-6.2600005 c 0.01,-0.04 0.05,-0.06 0.09,-0.06 l 1.72,0.04 c 1.73,0.04 3.46,-0.03 5.18,-0.17 0.07,-0.01 0.15,-0.02 0.22,-0.02 0.07,-0.01 0.15,-0.01 0.22,-0.02 1.72,-0.16 3.43,-0.41 5.12,-0.75 l 1.69,-0.34 c 0.04,-0.01 0.08,0.01 0.1,0.05 l 3.41,5.7400005 0.17,-2.96 c 0,0 0.31,0.09 0.6,0.28 0.27,0.17 0.42,0.3 0.42,0.3 l -0.54,-6.0600005 c -0.33,-3.61 -3.4,-8.56 -12.03,-7.96"
       id="path28"
       style="fill:#803300" /><path
       fill="#fbc11b"
       d="m 141.7801,-10.655931 -0.1624,-0.147394 c -1.84187,-1.673574 -1.97336,-4.528749 -0.29978,-6.370612 l 1.7401,-1.914487 c 1.67357,-1.841867 4.52874,-1.973351 6.3706,-0.299784 l 0.1624,0.147405 c 1.84187,1.673569 1.97336,4.528744 0.29978,6.370604 l -1.74009,1.914489 c -1.67357,1.8418684 -4.52874,1.9733527 -6.37061,0.299784"
       id="path2-2"
       style="fill:#ffd42a" /><rect
       style="fill:#ff8080;stroke-width:1.04514;stroke-dasharray:0.22019, 0.22019"
       id="rect2"
       width="2.5887764"
       height="3.6754229"
       x="110.05209"
       y="17.768929"
       ry="1.0806824"
       transform="rotate(-9.0990578)" /></g><text
     xml:space="preserve"
     style="font-size:2.06784px;font-family:'Microsoft Yi Baiti';-inkscape-font-specification:'Microsoft Yi Baiti';text-align:center;writing-mode:lr-tb;direction:ltr;text-anchor:middle;fill:#1a1a1a;stroke-width:0.0950882;stroke-dasharray:0.0200332, 0.0200332"
     x="33.893517"
     y="69.669945"
     id="text1"><tspan
       id="tspan1"
       style="font-style:normal;font-variant:normal;font-weight:normal;font-stretch:normal;font-family:Awergy;-inkscape-font-specification:Awergy;fill:#1a1a1a;stroke-width:0.0950882"
       x="33.893517"
       y="69.669945">x</tspan></text><text
     xml:space="preserve"
     style="font-size:2.06784px;font-family:'Microsoft Yi Baiti';-inkscape-font-specification:'Microsoft Yi Baiti';text-align:center;writing-mode:lr-tb;direction:ltr;text-anchor:middle;fill:#1a1a1a;stroke-width:0.0950882;stroke-dasharray:0.0200332, 0.0200332"
     x="36.63615"
     y="69.465401"
     id="text1-8"><tspan
       id="tspan1-2"
       style="font-style:normal;font-variant:normal;font-weight:normal;font-stretch:normal;font-family:Awergy;-inkscape-font-specification:Awergy;fill:#1a1a1a;stroke-width:0.0950882"
       x="36.63615"
       y="69.465401">x</tspan></text></svg>
