<?xml version="1.0" encoding="UTF-8" standalone="no"?>
<!-- Created with Inkscape (http://www.inkscape.org/) -->

<svg
   width="400"
   height="500"
   viewBox="0 0 105.83333 132.29167"
   version="1.1"
   id="svg1"
   xml:space="preserve"
   xmlns="http://www.w3.org/2000/svg"
   xmlns:svg="http://www.w3.org/2000/svg"><defs
     id="defs1" /><g
     id="layer1"><ellipse
       style="fill:#666666;stroke:#000000;stroke-width:0.448122;stroke-dasharray:none;stroke-opacity:1"
       id="path1"
       cx="28.583998"
       cy="121.71349"
       rx="25.41539"
       ry="8.1208935" /><rect
       style="fill:#4d4d4d;stroke-width:59.1678"
       id="rect2"
       width="4.661994"
       height="117.9613"
       x="27.531288"
       y="4.0529795"
       ry="0" /><ellipse
       style="fill:#4d4d4d;stroke-width:10.7333"
       id="path1-1"
       cx="29.319498"
       cy="120.81143"
       rx="6.8245034"
       ry="2.1806107" /><rect
       style="fill:none;stroke:#c8c4b7;stroke-width:0.334;stroke-dasharray:0.167, 0.167;stroke-dashoffset:0;stroke-opacity:1"
       id="rect5"
       width="0.14992149"
       height="14.748225"
       x="65.323769"
       y="4.1619034"
       ry="0.060196843" /><rect
       style="fill:#4d4d4d;stroke-width:43.9733"
       id="rect3"
       width="40.409058"
       height="0.85071683"
       x="27.51211"
       y="3.6195495" /><rect
       style="fill:#4d4d4d;stroke-width:53.5785"
       id="rect4"
       width="0.70551455"
       height="5.0393896"
       x="26.90719"
       y="-22.754948"
       transform="rotate(46.584679)" /><ellipse
       style="fill:none;stroke:#c8c4b7;stroke-width:1.23037;stroke-dasharray:0.123037, 0.123037;stroke-dashoffset:0;stroke-opacity:1"
       id="path5"
       cx="65.188545"
       cy="21.671505"
       rx="5.3698525"
       ry="2.3855946" /><g
       id="g5"
       transform="matrix(0.62676264,0,0,0.62676264,27.318908,12.28976)"><path
         fill="#444444"
         d="m 63.92,30.48 h -9.6 c -4.73,0 -7.6,3.5 -6.95,7.88 1.51,10.12 -1.88,24.18 -4.46,34.16 0,3.6 32.59,2.54 32.59,-1.06 2.58,-9.98 0.11,-22.98 -1.4,-33.1 -0.66,-4.39 -5.46,-7.88 -10.18,-7.88"
         id="path1-7" /><path
         fill="#fbc11b"
         d="m 25.57,67.22 -0.09,-0.2 c -1.02,-2.27 0,-4.94 2.27,-5.96 L 30.11,60 c 2.27,-1.02 4.94,0 5.96,2.27 l 0.09,0.2 c 1.02,2.27 0,4.94 -2.27,5.96 l -2.36,1.06 c -2.27,1.02 -4.94,0 -5.96,-2.27 m -0.706499,0.15037 -0.09,-0.2 c -1.02,-2.270001 0,-4.940001 2.27,-5.960001 l 2.36,-1.06 c 2.270001,-1.02 4.940001,0 5.960001,2.27 l 0.09,0.2 c 1.02,2.27 0,4.940001 -2.27,5.960001 l -2.360001,1.06 c -2.27,1.02 -4.94,0 -5.96,-2.27"
         id="path2" /><path
         fill="#fbc11b"
         d="M 92.007813,14.312625 91.819614,14.200014 C 89.68479,12.921019 88.994806,10.147354 90.273801,8.0125303 l 1.329956,-2.2191028 c 1.278994,-2.1348237 4.052662,-2.8248096 6.187485,-1.5458147 l 0.188199,0.1126112 c 2.134819,1.2789945 2.824809,4.0526602 1.545812,6.187485 l -1.329956,2.219103 c -1.278995,2.134823 -4.052661,2.824808 -6.187484,1.545813 m -0.49361,0.527353 -0.188199,-0.112611 C 89.19118,13.448371 88.501195,10.674706 89.78019,8.5398823 l 1.329956,-2.2191028 c 1.278996,-2.1348243 4.052661,-2.824809 6.187485,-1.5458142 l 0.188198,0.1126112 c 2.134824,1.2789946 2.824811,4.0526611 1.545814,6.1874845 l -1.329956,2.219103 c -1.278995,2.134824 -4.052661,2.824809 -6.187484,1.545814"
         id="path2-7" /><path
         fill="#444444"
         d="M 36.09,63.15 29.69,61.43 34.11,45.02 41.49,47 Z"
         id="path3" /><path
         fill="#fbc11b"
         d="m 35.73,42.7 4.2,6.38 15.57,-8.71 -4.77,-7.24 z"
         id="path4" /><circle
         cx="37.830002"
         cy="45.889999"
         r="3.8199999"
         fill="#444444"
         transform="rotate(-33.361,37.832,45.887)"
         id="circle4" /><circle
         cx="53.110001"
         cy="36.75"
         r="4.3299999"
         fill="#fbc11b"
         transform="rotate(-33.361,53.113,36.752)"
         id="circle5" /><path
         fill="#444444"
         d="m 57.8,33.67 c 1.59,2.41 0.92,5.66 -1.49,7.24 L 39.94,49.08 35.74,42.7 50.56,32.18 a 5.217,5.217 0 0 1 7.24,1.49"
         id="path5-1" /><path
         fill="#e0e0e0"
         d="m 36.09,63.15 -6.4,-1.72 1.14,-6.22 7.84,1.81 z"
         id="path6" /><path
         fill="#444444"
         d="m 89.92,11 6.41,1.66 -4.76,15.43 -7.4,-1.91 z"
         id="path7" /><path
         fill="#fbc11b"
         d="m 89.21,31.62 -2.9,-7.07 -16.8,6.24 3.29,8.02 z"
         id="path8" /><circle
         cx="87.760002"
         cy="28.09"
         r="3.8199999"
         fill="#444444"
         transform="rotate(-22.271,87.77,28.087)"
         id="circle8" /><circle
         cx="71.160004"
         cy="34.799999"
         r="4.3299999"
         fill="#fbc11b"
         transform="rotate(-22.271,71.164,34.8)"
         id="circle9" /><path
         fill="#444444"
         d="m 65.97,36.93 c -1.09,-2.67 0.18,-5.73 2.86,-6.82 l 17.49,-5.55 2.9,7.07 -16.42,8.16 c -2.68,1.09 -5.74,-0.19 -6.83,-2.86"
         id="path9" /><path
         fill="#e0e0e0"
         d="m 89.93,10.99 6.41,1.64 -1.43,6.25 -7.8,-1.8 z"
         id="path10" /><path
         fill="#fbc11b"
         d="m 42.9,97.65 10.5,2.64 7.45,-25.74 -12.36,-3.1 z"
         id="path11" /><circle
         cx="48.23"
         cy="98.620003"
         r="5.4099998"
         fill="#444444"
         transform="rotate(-8.15,48.243,98.614)"
         id="circle11" /><path
         fill="#e0e0e0"
         d="m 36.26,113.49 8.34,3.74 -3.41,6.55 -7.73,-3.47 z"
         id="path12" /><path
         fill="#444444"
         d="m 56.54,65.52 c 4.06,1.02 6.53,5.14 5.51,9.2 h 0.01 l -8.65,25.56 -10.5,-2.64 4.44,-26.62 c 1.01,-4.05 5.13,-6.52 9.19,-5.5"
         id="path13" /><path
         fill="#444444"
         d="m 35.1,113.47 10.12,4.7 7.87,-17.19 -9.87,-4.42 z"
         id="path14" /><path
         d="m 33.47,128 15.27,-0.03 -0.01,-2.42 a 5.205,5.205 0 0 0 -5.22,-5.19 l -10.07,0.02 z"
         id="path15" /><path
         fill="#fbc11b"
         d="M 73.49,100.21 82.93,94.91 70.66,71.1 59.54,77.34 Z"
         id="path16" /><circle
         cx="78.040001"
         cy="97.260002"
         r="5.4099998"
         fill="#444444"
         transform="rotate(-51.569,78.033,97.251)"
         id="circle16" /><path
         fill="#e0e0e0"
         d="m 79.55,116.28 8.64,-3.01 2.01,7.1 -7.99,2.79 z"
         id="path17" /><path
         fill="#444444"
         d="m 61.32,67.5 c 3.65,-2.05 8.27,-0.75 10.33,2.9 l 11.28,24.51 -9.44,5.3 L 58.43,77.82 A 7.57,7.57 0 0 1 61.32,67.5"
         id="path18" /><path
         fill="#444444"
         d="m 79.12,116.99 9.8,-3.5 -5.73,-17.86 -10.21,3.57 z"
         id="path19" /><path
         d="m 81.21,128 15.27,-0.03 -0.01,-2.42 a 5.205,5.205 0 0 0 -5.22,-5.19 l -10.07,0.02 z"
         id="path20" /><path
         fill="#00e676"
         d="m 55.37,31.31 4.54,-1.81 h 5.27 l 2.76,2.41 1.12,9.68 -3.48,11.27 -4.17,8.27 L 59.6,56.31 55.5,44.5 53.11,38.32 V 34.8 Z"
         id="path21" /><path
         fill="#757575"
         d="m 55.56,31.24 c 0,0 -0.89,1.42 -0.95,4.11 -0.06,2.93 6.48,16.8 7.6,27.58 L 60.6,63 c 0,0 -9.88,-15.15 -11.69,-25 0.56,-0.81 2.71,-1.96 2.71,-1.96 L 47.2,33.77 c 0,0 4.07,-6.5 7.17,-8.17 1.51,-0.3 4.38,-0.43 4.97,-0.41 l 0.27,4.85 z"
         id="path22" /><path
         fill="#757575"
         d="m 65.97,30.19 c 0,0 1.34,1.44 1.68,4.1 0.37,2.9 -4.41,21.88 -7.05,28.7 l 1.61,-0.07 C 71.99,55.88 73.82,36.17 73.82,36.17 l -2.9,-1.6 3.84,-2.9 c 0,0 -4.68,-5.84 -7.93,-7.1 -1.53,-0.1 -4.4,0.14 -4.98,0.23 l 0.33,5.06 z"
         id="path23" /><path
         fill="#e49500"
         d="m 61.38,35.18 c -2.19,0.2 -4.12,-1.42 -4.31,-3.6 l -0.3,-3.38 7.92,-0.71 0.3,3.38 c 0.19,2.18 -1.43,4.12 -3.61,4.31 m 8.53,-18.54 c 0,0 1.88,0.16 2.06,2.15 0.16,1.76 -1.13,2.58 -2.48,2.7 l -0.43,-4.77 z m -20.22,1.81 c 0,0 -1.83,0.49 -1.65,2.48 0.16,1.76 1.57,2.34 2.92,2.21 l -0.43,-4.77 z"
         id="path24" /><path
         fill="#fbc11b"
         d="m 58.63,4.47 c -7.99,0.72 -9.53,7.1 -8.75,15.8 0.81,9.02 6.82,10.84 11.1,10.45 4.22,-0.38 9.88,-3.17 9.06,-12.26 C 69.26,9.76 66.62,3.75 58.63,4.47"
         id="path25" /><path
         fill="#c07b47"
         d="m 57.511837,28.029441 c 0.410706,-0.03194 2.924737,-0.21263 2.924737,-0.21263 0,0 2.514031,-0.180686 2.924737,-0.21263 0.330526,-0.02352 0.465212,-0.260919 0.221541,-0.585764 -0.341295,-0.446786 -1.565353,-1.270972 -3.278164,-1.144569 -1.712811,0.126403 -2.802431,1.115205 -3.082194,1.609809 -0.207028,0.356004 -0.05118,0.569105 0.289343,0.545784"
         id="path26"
         style="fill:#f9f9f9" /><path
         fill="#e49500"
         d="m 61.71,22.591491 c -0.48,0.19 -0.99,0.3 -1.39,0.34 -0.4,0.04 -0.92,0.01 -1.43,-0.08 -0.22,-0.04 -0.28,0.17 -0.2,0.29 0.18,0.26 0.87,0.77 1.7,0.69 0.84,-0.08 1.42,-0.69 1.55,-0.98 0.08,-0.14 -0.02,-0.34 -0.23,-0.26"
         id="path27"
         style="fill:#1a1a1a" /><path
         fill="#6d4c41"
         d="m 58.77,3.31 c 0,0 -0.16,0.01 -0.22,0.02 -0.07,0.01 -0.22,0.02 -0.22,0.02 -8.61,0.94 -10.74,6.36 -10.42,9.96 0.31,3.5 0.55,6.06 0.55,6.06 0,0 0.12,-0.15 0.36,-0.37 0.25,-0.23 0.54,-0.38 0.54,-0.38 l 0.7,2.88 2.34,-6.26 c 0.01,-0.04 0.05,-0.06 0.09,-0.06 l 1.72,0.04 c 1.73,0.04 3.46,-0.03 5.18,-0.17 0.07,-0.01 0.15,-0.02 0.22,-0.02 0.07,-0.01 0.15,-0.01 0.22,-0.02 1.72,-0.16 3.43,-0.41 5.12,-0.75 l 1.69,-0.34 c 0.04,-0.01 0.08,0.01 0.1,0.05 l 3.41,5.74 0.17,-2.96 c 0,0 0.31,0.09 0.6,0.28 0.27,0.17 0.42,0.3 0.42,0.3 L 70.8,11.27 C 70.47,7.66 67.4,2.71 58.77,3.31"
         id="path28" /><ellipse
         style="fill:#333333;stroke:none;stroke-width:0.819072;stroke-dasharray:0.172563, 0.172563;stroke-dashoffset:0;stroke-opacity:1"
         id="path29"
         cx="55.535835"
         cy="20.91773"
         rx="2.2086864"
         ry="1.7067122" /><ellipse
         style="fill:#333333;stroke:none;stroke-width:0.819072;stroke-dasharray:0.172563, 0.172563;stroke-dashoffset:0;stroke-opacity:1"
         id="path29-2"
         cx="64.409843"
         cy="19.864655"
         rx="2.2086864"
         ry="1.7067122" /><text
         xml:space="preserve"
         style="font-weight:bold;font-size:5.22915px;font-family:Miniday;-inkscape-font-specification:'Miniday Bold';text-align:center;writing-mode:lr-tb;direction:ltr;text-anchor:middle;fill:#f9f9f9;stroke:#c8c4b7;stroke-width:0.240458;stroke-dasharray:0.0506598, 0.0506598;stroke-dashoffset:0;stroke-opacity:1"
         x="55.371746"
         y="21.821283"
         id="text5"><tspan
           id="tspan5"
           style="font-style:normal;font-variant:normal;font-weight:normal;font-stretch:normal;font-family:'Microsoft Yi Baiti';-inkscape-font-specification:'Microsoft Yi Baiti';fill:#f9f9f9;stroke:none;stroke-width:0.240458"
           x="55.371746"
           y="21.821283">x</tspan></text><text
         xml:space="preserve"
         style="font-weight:bold;font-size:5.22915px;font-family:Miniday;-inkscape-font-specification:'Miniday Bold';text-align:center;writing-mode:lr-tb;direction:ltr;text-anchor:middle;fill:#f9f9f9;stroke:#c8c4b7;stroke-width:0.240458;stroke-dasharray:0.0506598, 0.0506598;stroke-dashoffset:0;stroke-opacity:1"
         x="64.560432"
         y="20.733877"
         id="text5-6"><tspan
           id="tspan5-1"
           style="font-style:normal;font-variant:normal;font-weight:normal;font-stretch:normal;font-family:'Microsoft Yi Baiti';-inkscape-font-specification:'Microsoft Yi Baiti';fill:#f9f9f9;stroke:none;stroke-width:0.240458"
           x="64.560432"
           y="20.733877">x</tspan></text><rect
         style="fill:#ff8080;stroke:none;stroke-width:0.320708;stroke-dasharray:0.0675668, 0.0675668;stroke-dashoffset:0;stroke-opacity:1"
         id="rect29"
         width="4.8858824"
         height="3.346494"
         x="58.031845"
         y="26.841024"
         ry="0.84091389" /><rect
         style="fill:#ff5555;stroke:none;stroke-width:0.726958;stroke-dasharray:0.153156, 0.153156;stroke-dashoffset:0;stroke-opacity:1"
         id="rect30"
         width="0.33128604"
         height="1.3251443"
         x="60.294514"
         y="26.866386"
         ry="0.10082619" /></g></g></svg>
